<svg width="17" height="16" viewBox="0 0 17 16" fill="none"
    xmlns="http://www.w3.org/2000/svg">
    <path d="M8.79768 0C13.3295 0 17 3.67055 17 8.20236C16.9996 9.92091 16.4602 11.5962 15.4578 12.9921C14.4554 14.3882 13.0405 15.4346 11.4122 15.9843C11.0021 16.0664 10.8483 15.81 10.8483 15.5947C10.8483 15.3179 10.8585 14.4361 10.8585 13.3391C10.8585 12.5701 10.6022 12.078 10.3049 11.8216C12.1299 11.6166 14.0472 10.9194 14.0472 7.77174C14.0472 6.86948 13.7293 6.1415 13.2064 5.56734C13.2885 5.36228 13.5755 4.52154 13.1244 3.39372C13.1244 3.39372 12.4375 3.16816 10.8688 4.23446C10.2126 4.04991 9.51539 3.95763 8.81819 3.95763C8.12099 3.95763 7.42379 4.04991 6.7676 4.23446C5.1989 3.17841 4.51196 3.39372 4.51196 3.39372C4.06083 4.52154 4.34791 5.36228 4.42993 5.56734C3.90703 6.1415 3.58919 6.87973 3.58919 7.77174C3.58919 10.9091 5.49624 11.6166 7.32126 11.8216C7.08544 12.0267 6.87013 12.3856 6.79836 12.9187C6.32673 13.134 5.14764 13.4826 4.40943 12.242C4.25563 11.9959 3.79425 11.391 3.14832 11.4013C2.46137 11.4115 2.87149 11.7909 3.15857 11.9447C3.50717 12.1395 3.90703 12.8674 3.99931 13.1033C4.16336 13.5646 4.69651 14.4464 6.75735 14.067C6.75735 14.754 6.7676 15.3999 6.7676 15.5947C6.7676 15.81 6.61381 16.0561 6.20369 15.9843C4.57003 15.4405 3.14907 14.3962 2.14239 12.9993C1.13572 11.6025 0.594436 9.92411 0.595338 8.20236C0.595338 3.67055 4.26589 0 8.79768 0Z" fill="#FAFAFA" fill-opacity="0.5"/>
</svg>
