<svg width="166" height="47" viewBox="0 0 166 47" fill="none"
    xmlns="http://www.w3.org/2000/svg">
    <rect width="9.41764" height="9.41764" transform="translate(0 0.00897217)" fill="#4DFF94"/>
    <rect width="9.41764" height="9.41764" transform="translate(0 12.3245)" fill="#4DFF94"/>
    <rect width="9.41764" height="9.41764" transform="translate(0 24.6395)" fill="#4DFF94"/>
    <rect width="9.41764" height="9.41764" transform="translate(0 36.8254)" fill="#4DFF94"/>
    <rect width="9.41764" height="9.41764" transform="translate(12.3192 0.0088501)" fill="#4DFF94"/>
    <path d="M21.2371 12.8245V21.2424H12.8192V12.8245H21.2371Z" stroke="white"/>
    <rect width="9.41764" height="9.41764" transform="translate(12.3192 12.3245)" fill="#4DFF94"/>
    <rect width="9.41764" height="9.41764" transform="translate(12.3192 24.6395)" fill="#4DFF94"/>
    <rect width="9.41764" height="9.41764" transform="translate(12.3192 36.9551)" fill="#4DFF94"/>
    <rect width="9.41764" height="9.41764" transform="translate(24.6289 0.0088501)" fill="#4DFF94"/>
    <rect width="9.41764" height="9.41764" transform="translate(24.6289 12.3245)" fill="#4DFF94"/>
    <rect width="9.41764" height="9.41764" transform="translate(24.6289 24.6395)" fill="#4DFF94"/>
    <rect width="9.41764" height="9.41764" transform="translate(24.6289 36.9551)" fill="#4DFF94"/>
    <rect width="9.41764" height="9.41764" transform="translate(36.948 0.0088501)" fill="#4DFF94"/>
    <rect width="9.41764" height="9.41764" transform="translate(36.948 12.3245)" fill="#4DFF94"/>
    <rect width="9.41764" height="9.41764" transform="translate(36.948 24.6395)" fill="#4DFF94"/>
    <rect width="9.41764" height="9.41764" transform="translate(36.948 36.9551)" fill="#4DFF94"/>
    <path fill-rule="evenodd" clip-rule="evenodd" d="M58.6802 0.00997925V15.6677L59.3919 15.6663C60.5478 14.3761 61.9621 13.4393 63.6345 12.8559C65.3071 12.2512 67.2164 11.9458 69.3625 11.9409L69.6331 11.9423C72.4223 11.9755 74.9411 12.624 77.1894 13.8871C79.5101 15.1694 81.3494 17.129 82.7075 19.7657C84.0656 22.3809 84.7495 25.6094 84.7584 29.4511C84.7673 33.2928 84.0984 36.5356 82.7525 39.1786C81.4065 41.8 79.5763 43.7574 77.2615 45.0504C74.9468 46.3435 72.3406 46.9935 69.4435 47.0002C67.233 47.0053 65.2687 46.6986 63.5504 46.0801C61.9395 45.5004 60.573 44.5901 59.451 43.349L59.2299 43.0961H58.6802V46.3741L49.2626 46.3727V0.00997925H58.6802ZM66.8361 19.2552C65.1622 19.2591 63.693 19.6595 62.4287 20.4565C61.1858 21.2535 60.2227 22.4146 59.5394 23.94C58.8562 25.4654 58.5171 27.3228 58.5221 29.5119C58.5272 31.6796 58.875 33.5355 59.5653 35.0792C60.2555 36.6014 61.2242 37.7581 62.4708 38.5493C63.7387 39.3189 65.2097 39.7021 66.8835 39.6982C68.5574 39.6943 70.0159 39.3043 71.2588 38.5288C72.5231 37.7317 73.497 36.5706 74.1802 35.0453C74.8634 33.4984 75.2026 31.6407 75.1975 29.473C75.1924 27.284 74.8446 25.4285 74.1544 23.9064C73.4641 22.3841 72.4847 21.2275 71.2167 20.4363C69.9702 19.6451 68.51 19.2514 66.8361 19.2552Z" fill="white"/>
    <path fill-rule="evenodd" clip-rule="evenodd" d="M114.963 9.15527e-05L115.021 24.9899L115.538 24.9888L128.655 12.5004H139.56L139.563 13.4718L123.036 28.6524L139.733 45.3377L139.735 46.3066L128.501 46.3327L115.556 32.8345L115.039 32.8355L115.071 46.3639L105.547 46.3858V46.3844L97.6819 46.4028C95.6374 46.4075 93.8718 46.0561 92.3852 45.3494C90.8986 44.6425 89.7553 43.6012 88.9558 42.2256C88.1564 40.85 87.7539 39.1721 87.7492 37.1921L87.7089 19.7897L85.6757 19.7943C85.5389 19.4738 85.3944 19.1586 85.241 18.8492L85.0917 18.5552C83.8487 16.1447 82.2182 14.1506 80.189 12.6395L87.6923 12.6221L87.6725 4.03435L97.1966 4.01207L97.2164 12.5999L105.469 12.5808L105.44 0.0220227L114.963 9.15527e-05ZM97.233 19.7678L97.2758 38.203L97.793 38.7184L105.529 38.7003L105.485 19.7487L97.233 19.7678Z" fill="white"/>
    <path d="M142.039 12.5004V15.8322H142.553C143.667 14.5249 145.06 13.5605 146.732 12.939C148.425 12.2961 150.375 11.9746 152.583 11.9746C155.283 11.9746 157.598 12.4461 159.526 13.3891C161.455 14.3321 162.934 15.7465 163.963 17.6325C164.991 19.497 165.506 21.7901 165.506 24.5119V46.3074H156.055V25.3155C156.055 23.3653 155.54 21.8973 154.511 20.9114C153.483 19.9256 151.983 19.4327 150.011 19.4327C148.532 19.4327 147.214 19.7113 146.057 20.2685C144.921 20.8257 144.021 21.7044 143.357 22.9045C142.692 24.1047 142.36 25.6263 142.36 27.4694V46.3074H132.877V12.5004H142.039Z" fill="white"/>
</svg>
